<svg xmlns="http://www.w3.org/2000/svg" viewBox="0 0 219.2 170.38"><defs><style>.cls-1{fill:#ce00ff;}.cls-2{fill:#00cbff;}</style></defs><g id="Layer_9" data-name="Layer 9"><polygon class="cls-1" points="40.11 47.86 0 87.97 0 8.73 40.11 47.86"/><polygon class="cls-2" points="177.9 47.86 218.01 87.97 218.01 8.73 177.9 47.86"/><polygon class="cls-1" points="70.48 77.5 70.47 77.52 0 147.98 0 110.55 51.52 59.02 51.53 59.02 70.48 77.5"/><polygon class="cls-1" points="99.23 105.56 34.41 170.38 0.19 170.38 81.91 88.66 99.23 105.56"/><polygon class="cls-1" points="129.5 135.12 94.24 170.38 57 170.38 110.64 116.72 110.66 116.72 129.5 135.12"/><polygon class="cls-1" points="159.82 164.7 154.14 170.38 116.81 170.38 140.93 146.26 159.82 164.7"/><path class="cls-2" d="M110.5,0l0,0L51.51,59h0l18.93,18.5,58.85-58.85Zm-7.66,18.62,8.22-8.22,8.24,8.22-8.24,8.22Z"/><path class="cls-2" d="M140.67,29.9,81.91,88.66l17.32,16.91L157.88,46.9Zm-9,17.57,8.22-8.23,8.22,8.23-8.22,8.22Z"/><path class="cls-2" d="M169.22,58.13l-58.56,58.58,18.84,18.41L188,76.66Zm-8.78,18.13L168.66,68l8.22,8.22-8.22,8.22Z"/><path class="cls-2" d="M199.29,87.89l-58.36,58.37,18.89,18.43,58.25-58.23Zm-7.14,18.84,8.22-8.22,8.22,8.22L200.37,115Z"/><polygon class="cls-2" points="219.2 127.9 219.2 170.38 176.71 170.38 219.2 127.9"/></g></svg>
